# xmcd CD database file
#
# Track frame offsets:
#	150
#	17850
#	35917
#	54374
#	69248
#	80700
#	95488
#	117219
#	142045
#	154796
#	187872
#
# Disc length: 2948 seconds
#
# Revision: 0
# Processed by: cddbd v1.5.2PL0 Copyright (c) Steve Scherf et al.
# Submitted via: CDex 1.51
#
DISCID=910b820b
DTITLE=Various Artist - Blues to feel good
DYEAR=1999
DGENRE=Blues
TTITLE0=Tin Pan Alley - Big Man
TTITLE1=Hary Wetterstein - Secret Blues
TTITLE2=More Experience - Lover Man
TTITLE3=John Kirkbride - Silver Tounged Woman
TTITLE4=Miss Moneypenny - Home Work
TTITLE5=Tin Pan Alley - Waiting in the wings
TTITLE6=Palz Gang - Red House
TTITLE7=Blue Mood - So tired
TTITLE8=Miss Moneypenny - Just a little bit
TTITLE9=Junior and then bon ton Roulet - Barroom Rider
TTITLE10=Glass Band - Take my blues away
EXTD=YEAR: 1999
EXTT0=
EXTT1=
EXTT2=
EXTT3=
EXTT4=
EXTT5=
EXTT6=
EXTT7=
EXTT8=
EXTT9=
EXTT10=
PLAYORDER=
